<?xml version="1.0" encoding="UTF-8"?>
<svg id="Layer_2" data-name="Layer 2" xmlns="http://www.w3.org/2000/svg" viewBox="0 0 850.81 738.3">
  <defs>
    <style>
      .cls-1 {
        fill: #000;
        stroke-width: 0px;
      }
    </style>
  </defs>
  <g id="Layer_1-2" data-name="Layer 1">
    <path class="cls-1" d="m346.69,135.95c52.76,91.58,105.25,182.68,157.93,274.12-3.08.32-5.82.79-8.58.86-6.08.17-12.16.18-18.23.21-21.84.09-43.68.17-65.52.23-1.83,0-3.68-.07-5.5-.27-4.3-.47-7.67-2.62-10.23-6.04-.96-1.28-1.8-2.64-2.6-4.03-13.44-23.36-26.83-46.74-40.31-70.07-2.19-3.79-4.77-7.37-7.4-11.39-31.4,54.41-62.59,108.47-93.98,162.88,3.13.36,5.93.88,8.75.96,7.91.23,15.83.37,23.75.38,64.8.02,129.6.02,194.4-.01,18.24,0,36.48-.13,54.72-.17,2.08,0,4.16.1,6.22.33,4.07.45,7.49,2.23,10.03,5.49,1.03,1.32,1.94,2.74,2.78,4.19,43.75,75.94,87.49,151.88,131.22,227.83,2.79,4.85,5.54,9.73,8.29,14.6.34.6.6,1.25.99,2.07H0c.23-.56.35-1,.57-1.39,13.75-23.73,27.57-47.42,41.2-71.22,2.58-4.5,6.2-7.15,10.92-8.73,2.15-.72,4.32-1.08,6.59-1.07,57.28.1,114.56.19,171.83.27,14.88.02,29.76-.02,44.64-.02,63.52,0,127.04-.01,190.56-.02,20,0,40,.01,60-.04,4.07-.01,8.13-.3,12.52-.47-1.09-3.73-2.12-7.1-3.92-10.21-6.86-11.83-13.73-23.65-20.52-35.52-4.85-8.46-9.58-16.99-14.39-25.48-.71-1.25-1.45-2.49-2.31-3.64-2.76-3.67-6.67-5.07-11.07-5.37-1.99-.14-4-.11-6-.11-126.32.02-252.64.04-378.96.06-.4,0-.81-.05-1.2,0-2.35.35-4.02-.51-5.09-3,83.62-145.14,167.35-290.47,251.31-436.19Z"/>
    <path class="cls-1" d="m850.81,738.24c-4.63,0-8.69-.02-12.76.02-1,.01-1.39-.6-1.8-1.31-1.59-2.77-3.2-5.54-4.79-8.31-107.83-186.85-215.67-373.7-323.5-560.55-.4-.69-.77-1.4-1.23-2.24,2.31-3.96,4.64-7.94,7.2-12.33,112.32,194.96,224.46,389.6,336.88,584.72Z"/>
    <path class="cls-1" d="m486.76,200.17c103.91,179.51,207.56,358.58,311.37,537.94h-15.09c-.42-.71-.88-1.45-1.31-2.2-100.2-173.62-200.41-347.25-300.61-520.87-.32-.55-.72-1.08-.93-1.68-.16-.48-.3-1.16-.08-1.55,2.09-3.76,4.25-7.48,6.64-11.63Z"/>
    <path class="cls-1" d="m824.23,738.24c-4.29,0-8.37-.04-12.44.02-1.25.02-1.62-.79-2.1-1.62-4.64-8.03-9.27-16.07-13.91-24.1-100.32-173.83-200.64-347.67-300.96-521.5-.44-.76-.86-1.53-1.37-2.44,2.08-3.57,4.16-7.15,6.2-10.65.19-.04.26-.07.33-.06.08.01.18.04.21.09,107.95,186.41,215.89,372.83,323.82,559.25.11.19.1.45.21,1.01Z"/>
    <path class="cls-1" d="m429.18,174.36c-2.19-3-4.44-5.54-6.09-8.43-13.96-24.34-27.8-48.73-41.69-73.11-1.16-2.04-2.02-4.16-2.3-6.5-.39-3.19.12-6.1,1.76-8.97,14.37-25.02,28.65-50.09,42.97-75.14.39-.68.86-1.32,1.46-2.22.43.61.76,1,1.01,1.43,16.84,29.22,33.68,58.45,50.55,87.66.72,1.24.89,2.31.2,3.57-.84,1.54-1.52,3.18-2.44,4.67-12.36,19.81-23.63,40.25-35.27,60.48-2.83,4.92-5.84,9.73-8.78,14.58-.33.54-.72,1.04-1.36,1.97Zm20-84.96c.03-11.91-9.57-21.6-21.42-21.62-11.92-.02-21.6,9.56-21.64,21.41-.04,11.86,9.61,21.6,21.44,21.64,11.87.04,21.59-9.59,21.63-21.43Z"/>
    <path class="cls-1" d="m473.09,224.16c99.21,171.4,198.25,342.5,297.44,513.86-.81.1-1.32.21-1.83.21-3.28.02-6.56-.1-9.84.05-1.83.08-2.85-.48-3.78-2.12-5.67-10.02-11.47-19.97-17.22-29.94-89.64-155.33-179.28-310.67-269-465.96-1.84-3.18-1.74-5.74.03-8.66,1.4-2.31,2.67-4.71,4.2-7.45Z"/>
  </g>
</svg>