<svg xmlns="http://www.w3.org/2000/svg" width="694" height="250.743" viewBox="0 0 694 250.743">
  <g id="Group_37" data-name="Group 37" transform="translate(-1086 -397.374)">
    <path id="logomark.min" d="M243.432,56.725a3.969,3.969,0,0,1,.137,1.025v53.821a3.924,3.924,0,0,1-1.972,3.4l-45.173,26.008v51.55a3.934,3.934,0,0,1-1.962,3.4l-94.3,54.282a4.213,4.213,0,0,1-.687.285c-.088.029-.172.083-.265.108a3.949,3.949,0,0,1-2.011,0c-.108-.029-.206-.088-.309-.128a4.08,4.08,0,0,1-.647-.265L1.972,195.938A3.929,3.929,0,0,1,0,192.534V31.07a4.012,4.012,0,0,1,.137-1.03c.029-.113.1-.216.137-.329a3.867,3.867,0,0,1,.25-.608,3.67,3.67,0,0,1,.27-.348,4,4,0,0,1,.348-.456A3.832,3.832,0,0,1,1.53,28a3.2,3.2,0,0,1,.432-.338h0L49.107.524a3.934,3.934,0,0,1,3.924,0l47.14,27.141h.01a4.81,4.81,0,0,1,.432.334,4.641,4.641,0,0,1,.383.294,4.59,4.59,0,0,1,.353.461,3.619,3.619,0,0,1,.265.348,4.1,4.1,0,0,1,.255.608c.039.113.108.216.137.334a3.968,3.968,0,0,1,.137,1.025V131.919L141.426,109.3V57.745a3.965,3.965,0,0,1,.137-1.02c.034-.118.1-.221.137-.334a4.422,4.422,0,0,1,.255-.608c.074-.128.182-.231.265-.348a4.034,4.034,0,0,1,.353-.456,3.765,3.765,0,0,1,.383-.294,3.959,3.959,0,0,1,.432-.338h0L190.538,27.2a3.929,3.929,0,0,1,3.924,0L241.6,54.346a4.336,4.336,0,0,1,.441.334c.123.1.265.186.378.294a4.59,4.59,0,0,1,.353.461,2.963,2.963,0,0,1,.265.348,3.891,3.891,0,0,1,.255.608,2.807,2.807,0,0,1,.137.334ZM235.711,109.3V64.544l-16.5,9.5-22.79,13.122v44.756L235.716,109.3Zm-47.14,80.962V145.477l-22.417,12.8-64.015,36.535v45.207l86.432-49.76ZM7.858,37.864v152.4L94.28,240.017v-45.2L49.132,169.268l-.015-.01-.02-.01a182.887,182.887,0,0,0-.795-.608l-.01-.015a3.736,3.736,0,0,1-.324-.412,4.191,4.191,0,0,1-.294-.383l0-.015a3.129,3.129,0,0,1-.206-.491,2.9,2.9,0,0,1-.186-.441v0a3.755,3.755,0,0,1-.078-.574,3.4,3.4,0,0,1-.059-.441V60.482L24.355,47.356l-16.5-9.487Zm43.216-29.4L11.8,31.07,51.064,53.679,90.337,31.065,51.064,8.461ZM71.5,149.558l22.785-13.117V37.864l-16.5,9.5L55,60.482V159.06l16.5-9.5Zm121-114.417L153.228,57.75,192.5,80.359l39.267-22.614Zm-3.929,52.021L165.78,74.041l-16.5-9.5V109.3l22.785,13.117,16.5,9.5V87.162ZM98.2,188.021l57.6-32.885L184.6,138.7,145.36,116.109l-45.183,26.013L59,165.829,98.2,188.021Z" transform="translate(1086 397.374)" fill="#ff2d20" fill-rule="evenodd"/>
    <path id="logotype.min" d="M16.6.917V85.336H47.14V99.9H.333V.917Zm87.95,42V34.005h15.414V99.9H104.551V90.992a21.253,21.253,0,0,1-8.839,7.777A25.789,25.789,0,0,1,84.188,101.6,33.46,33.46,0,0,1,70.47,98.842a32.081,32.081,0,0,1-10.678-7.568,35.165,35.165,0,0,1-6.923-11.026,36.717,36.717,0,0,1,0-26.521,35.019,35.019,0,0,1,6.927-11.1A32.11,32.11,0,0,1,70.47,35.064a33.46,33.46,0,0,1,13.718-2.755,25.789,25.789,0,0,1,11.524,2.828,21.3,21.3,0,0,1,8.839,7.777Zm-1.414,32.1a23.615,23.615,0,0,0,0-16.118,20.44,20.44,0,0,0-3.956-6.648,19.169,19.169,0,0,0-6.154-4.528,18.561,18.561,0,0,0-7.985-1.7,18.11,18.11,0,0,0-7.923,1.7,19.133,19.133,0,0,0-9.964,11.172,24.795,24.795,0,0,0,0,16.118,19.169,19.169,0,0,0,9.971,11.176,18.026,18.026,0,0,0,7.916,1.7,18.513,18.513,0,0,0,7.989-1.7,19.129,19.129,0,0,0,6.154-4.528A20.421,20.421,0,0,0,103.133,75.014ZM132.123,99.9V34.005h41.858V49.174H147.533V99.908H132.123Zm97.712-56.986V34.005h15.414V99.9H229.835V90.992A21.23,21.23,0,0,1,221,98.769a25.777,25.777,0,0,1-11.524,2.828,33.455,33.455,0,0,1-13.715-2.755,32.081,32.081,0,0,1-10.678-7.568,35.165,35.165,0,0,1-6.927-11.026,36.742,36.742,0,0,1,0-26.521,35.019,35.019,0,0,1,6.923-11.1,32.111,32.111,0,0,1,10.682-7.564,33.454,33.454,0,0,1,13.715-2.755A25.789,25.789,0,0,1,221,35.137a21.255,21.255,0,0,1,8.839,7.777Zm-1.414,32.1a23.672,23.672,0,0,0,0-16.118,20.44,20.44,0,0,0-3.956-6.648,19.169,19.169,0,0,0-6.154-4.528,18.578,18.578,0,0,0-7.989-1.7,18.105,18.105,0,0,0-7.92,1.7,19.154,19.154,0,0,0-9.967,11.172,24.826,24.826,0,0,0,0,16.118A19.147,19.147,0,0,0,202.4,86.186a18.054,18.054,0,0,0,7.92,1.7,18.525,18.525,0,0,0,7.989-1.7,19.128,19.128,0,0,0,6.154-4.528A20.421,20.421,0,0,0,228.421,75.014Zm78.62-41.008h15.612L297.36,99.9H277.983l-25.3-65.9H268.3l19.374,50.462Zm49.232-1.7c20.986,0,35.3,18.6,32.609,40.371H337.749c0,5.685,5.74,16.674,19.37,16.674,11.722,0,19.579-10.312,19.583-10.319l10.414,8.059C377.8,97.032,370.182,101.6,358.244,101.6c-21.33,0-35.788-13.495-35.788-34.645,0-19.132,14.942-34.645,33.814-34.645ZM337.79,61.226h36.938c-.114-1.267-2.117-16.674-18.579-16.674S337.907,59.958,337.79,61.226ZM398.919,99.9V.917h15.414V99.9Z" transform="translate(1365.667 495.886)" fill="#ff2d20" fill-rule="evenodd"/>
  </g>
</svg>
